<mxfile host="app.diagrams.net" modified="2024-03-20T08:14:02.841Z" agent="Mozilla/5.0 (Windows NT 10.0; Win64; x64) AppleWebKit/537.36 (KHTML, like Gecko) Chrome/122.0.0.0 Safari/537.36 Edg/122.0.0.0" etag="xcp21mJOcG_KwCgkmVus" version="24.0.7" type="device">
  <diagram name="Page-1" id="JTqRlM-jBYFBGNSzGr8l">
    <mxGraphModel dx="1386" dy="871" grid="1" gridSize="10" guides="1" tooltips="1" connect="1" arrows="1" fold="1" page="1" pageScale="1" pageWidth="850" pageHeight="1100" math="0" shadow="0">
      <root>
        <mxCell id="0" />
        <mxCell id="1" parent="0" />
        <mxCell id="OIbkQJYILjr2LHhR_E8L-1" value="" style="shape=actor;whiteSpace=wrap;html=1;" vertex="1" parent="1">
          <mxGeometry x="160" y="340" width="50" height="60" as="geometry" />
        </mxCell>
        <mxCell id="OIbkQJYILjr2LHhR_E8L-3" value="Benutzer" style="text;html=1;align=center;verticalAlign=middle;resizable=0;points=[];autosize=1;strokeColor=none;fillColor=none;" vertex="1" parent="1">
          <mxGeometry x="150" y="400" width="70" height="30" as="geometry" />
        </mxCell>
        <mxCell id="OIbkQJYILjr2LHhR_E8L-4" value="" style="shape=actor;whiteSpace=wrap;html=1;" vertex="1" parent="1">
          <mxGeometry x="650" y="340" width="50" height="60" as="geometry" />
        </mxCell>
        <mxCell id="OIbkQJYILjr2LHhR_E8L-5" value="Entwickler" style="text;html=1;align=center;verticalAlign=middle;resizable=0;points=[];autosize=1;strokeColor=none;fillColor=none;" vertex="1" parent="1">
          <mxGeometry x="635" y="400" width="80" height="30" as="geometry" />
        </mxCell>
        <mxCell id="OIbkQJYILjr2LHhR_E8L-6" value="In Jira erfasste Leistungen werden automatisch in der Leis DB abgespeichert" style="ellipse;whiteSpace=wrap;html=1;" vertex="1" parent="1">
          <mxGeometry x="190" y="240" width="180" height="80" as="geometry" />
        </mxCell>
        <mxCell id="OIbkQJYILjr2LHhR_E8L-7" value="" style="endArrow=none;html=1;rounded=0;entryX=0.5;entryY=1;entryDx=0;entryDy=0;exitX=0.75;exitY=0.25;exitDx=0;exitDy=0;exitPerimeter=0;" edge="1" parent="1" source="OIbkQJYILjr2LHhR_E8L-1" target="OIbkQJYILjr2LHhR_E8L-6">
          <mxGeometry width="50" height="50" relative="1" as="geometry">
            <mxPoint x="380" y="480" as="sourcePoint" />
            <mxPoint x="430" y="430" as="targetPoint" />
          </mxGeometry>
        </mxCell>
        <mxCell id="OIbkQJYILjr2LHhR_E8L-8" value="Applikation wird mit Unit Tests getestet" style="ellipse;whiteSpace=wrap;html=1;" vertex="1" parent="1">
          <mxGeometry x="530" y="250" width="120" height="60" as="geometry" />
        </mxCell>
        <mxCell id="OIbkQJYILjr2LHhR_E8L-9" value="Applikation führt Plausibilitätstests durch" style="ellipse;whiteSpace=wrap;html=1;" vertex="1" parent="1">
          <mxGeometry x="430" y="320" width="170" height="65" as="geometry" />
        </mxCell>
        <mxCell id="OIbkQJYILjr2LHhR_E8L-10" value="Private Projekte werden nicht verarbeitet&amp;nbsp;&lt;div&gt;(Whitelist)&lt;/div&gt;" style="ellipse;whiteSpace=wrap;html=1;" vertex="1" parent="1">
          <mxGeometry x="260" y="340" width="120" height="80" as="geometry" />
        </mxCell>
        <mxCell id="OIbkQJYILjr2LHhR_E8L-13" value="" style="endArrow=none;html=1;rounded=0;exitX=0.75;exitY=0.25;exitDx=0;exitDy=0;exitPerimeter=0;entryX=0;entryY=0.5;entryDx=0;entryDy=0;" edge="1" parent="1" source="OIbkQJYILjr2LHhR_E8L-1" target="OIbkQJYILjr2LHhR_E8L-10">
          <mxGeometry width="50" height="50" relative="1" as="geometry">
            <mxPoint x="520" y="350" as="sourcePoint" />
            <mxPoint x="570" y="300" as="targetPoint" />
          </mxGeometry>
        </mxCell>
        <mxCell id="OIbkQJYILjr2LHhR_E8L-14" value="" style="endArrow=none;html=1;rounded=0;entryX=0.5;entryY=1;entryDx=0;entryDy=0;exitX=0.25;exitY=0.2;exitDx=0;exitDy=0;exitPerimeter=0;" edge="1" parent="1" source="OIbkQJYILjr2LHhR_E8L-4" target="OIbkQJYILjr2LHhR_E8L-8">
          <mxGeometry width="50" height="50" relative="1" as="geometry">
            <mxPoint x="520" y="350" as="sourcePoint" />
            <mxPoint x="570" y="300" as="targetPoint" />
          </mxGeometry>
        </mxCell>
        <mxCell id="OIbkQJYILjr2LHhR_E8L-15" value="" style="endArrow=none;html=1;rounded=0;entryX=0.25;entryY=0.2;entryDx=0;entryDy=0;entryPerimeter=0;exitX=1;exitY=0.5;exitDx=0;exitDy=0;" edge="1" parent="1" source="OIbkQJYILjr2LHhR_E8L-9" target="OIbkQJYILjr2LHhR_E8L-4">
          <mxGeometry width="50" height="50" relative="1" as="geometry">
            <mxPoint x="520" y="350" as="sourcePoint" />
            <mxPoint x="570" y="300" as="targetPoint" />
          </mxGeometry>
        </mxCell>
      </root>
    </mxGraphModel>
  </diagram>
</mxfile>
